<svg viewBox="0 0 416 54" fill="none" xmlns="http://www.w3.org/2000/svg">
<path d="M9.39625 27.2006L24.5732 42.4395C25.2913 43.1604 25.6503 44.0781 25.6503 45.1923C25.6503 46.3065 25.2913 47.2242 24.5732 47.9451C23.8552 48.6661 22.9413 49.0266 21.8316 49.0266C20.7219 49.0266 19.808 48.6661 19.0899 47.9451L1.0734 29.8551C0.681736 29.4618 0.403654 29.0358 0.239155 28.577C0.0746566 28.1182 -0.00498116 27.6266 0.000241025 27.1022C0.00546321 26.5779 0.0877125 26.0863 0.246989 25.6275C0.406266 25.1687 0.683041 24.7427 1.07732 24.3494L19.0938 6.25933C19.8772 5.47281 20.808 5.07955 21.8864 5.07955C22.9648 5.07955 23.8943 5.47281 24.6751 6.25933C25.4558 7.04586 25.8474 7.98051 25.85 9.06329C25.8527 10.1461 25.461 11.0794 24.6751 11.8633L9.39625 27.2006ZM65.6 27.0039L50.423 11.765C49.705 11.044 49.346 10.1264 49.346 9.01217C49.346 7.89793 49.705 6.98031 50.423 6.25933C51.1411 5.53835 52.055 5.17786 53.1647 5.17786C54.2744 5.17786 55.1883 5.53835 55.9063 6.25933L73.9229 24.3494C74.3145 24.7427 74.5926 25.1687 74.7571 25.6275C74.9216 26.0863 75.0026 26.5779 74.9999 27.1022C74.9973 27.6266 74.9164 28.1182 74.7571 28.577C74.5978 29.0358 74.3197 29.4618 73.9229 29.8551L55.9063 47.9451C55.123 48.7317 54.2091 49.1092 53.1647 49.0777C52.1202 49.0463 51.2064 48.636 50.423 47.8468C49.6397 47.0577 49.248 46.1243 49.248 45.0468C49.248 43.9693 49.6397 43.0346 50.423 42.2428L65.6 27.0039Z" fill="currentColor"/>
<path d="M33 27.0795C33 29.841 30.7614 32.0795 28 32.0795C25.2386 32.0795 23 29.841 23 27.0795C23 24.3181 25.2386 22.0795 28 22.0795C30.7614 22.0795 33 24.3181 33 27.0795Z" fill="#8A73E8"/>
<path d="M52 27.0795C52 29.841 49.7614 32.0795 47 32.0795C44.2386 32.0795 42 29.841 42 27.0795C42 24.3181 44.2386 22.0795 47 22.0795C49.7614 22.0795 52 24.3181 52 27.0795Z" fill="#8A73E8"/>
<path d="M142.244 17.7443H134.267C133.96 16.0398 133.389 14.5398 132.554 13.2443C131.719 11.9489 130.696 10.8494 129.486 9.94602C128.276 9.04261 126.92 8.3608 125.42 7.90057C123.938 7.44034 122.361 7.21023 120.69 7.21023C117.673 7.21023 114.972 7.96875 112.585 9.4858C110.216 11.0028 108.341 13.2273 106.96 16.1591C105.597 19.0909 104.915 22.6705 104.915 26.8977C104.915 31.1591 105.597 34.7557 106.96 37.6875C108.341 40.6193 110.224 42.8352 112.611 44.3352C114.997 45.8352 117.682 46.5852 120.665 46.5852C122.318 46.5852 123.886 46.3636 125.369 45.9205C126.869 45.4602 128.224 44.7869 129.435 43.9006C130.645 43.0142 131.668 41.9318 132.503 40.6534C133.355 39.358 133.943 37.875 134.267 36.2045L142.244 36.2301C141.818 38.804 140.991 41.1733 139.764 43.3381C138.554 45.4858 136.994 47.3438 135.085 48.9119C133.193 50.4631 131.028 51.6648 128.591 52.517C126.153 53.3693 123.494 53.7955 120.614 53.7955C116.08 53.7955 112.04 52.7216 108.494 50.5739C104.949 48.4091 102.153 45.3153 100.108 41.2926C98.0795 37.2699 97.0653 32.4716 97.0653 26.8977C97.0653 21.3068 98.0881 16.5085 100.134 12.5028C102.179 8.48011 104.974 5.39489 108.52 3.24716C112.065 1.08239 116.097 0 120.614 0C123.392 0 125.983 0.400569 128.386 1.20171C130.807 1.9858 132.98 3.14489 134.906 4.67898C136.832 6.19602 138.426 8.05398 139.688 10.2528C140.949 12.4347 141.801 14.9318 142.244 17.7443Z" fill="#8A73E8"/>
<path d="M167.627 53.8722C163.945 53.8722 160.732 53.0284 157.988 51.3409C155.244 49.6534 153.113 47.2926 151.596 44.2585C150.079 41.2244 149.32 37.679 149.32 33.6222C149.32 29.5483 150.079 25.9858 151.596 22.9347C153.113 19.8835 155.244 17.5142 157.988 15.8267C160.732 14.1392 163.945 13.2955 167.627 13.2955C171.309 13.2955 174.522 14.1392 177.266 15.8267C180.011 17.5142 182.141 19.8835 183.658 22.9347C185.175 25.9858 185.934 29.5483 185.934 33.6222C185.934 37.679 185.175 41.2244 183.658 44.2585C182.141 47.2926 180.011 49.6534 177.266 51.3409C174.522 53.0284 171.309 53.8722 167.627 53.8722ZM167.653 47.4545C170.039 47.4545 172.016 46.8239 173.585 45.5625C175.153 44.3011 176.312 42.6222 177.062 40.5256C177.829 38.429 178.212 36.1193 178.212 33.5966C178.212 31.0909 177.829 28.7898 177.062 26.6932C176.312 24.5795 175.153 22.8835 173.585 21.6051C172.016 20.3267 170.039 19.6875 167.653 19.6875C165.249 19.6875 163.255 20.3267 161.67 21.6051C160.102 22.8835 158.934 24.5795 158.167 26.6932C157.417 28.7898 157.042 31.0909 157.042 33.5966C157.042 36.1193 157.417 38.429 158.167 40.5256C158.934 42.6222 160.102 44.3011 161.67 45.5625C163.255 46.8239 165.249 47.4545 167.653 47.4545Z" fill="#8A73E8"/>
<path d="M209.169 53.8466C205.999 53.8466 203.169 53.0369 200.68 51.4176C198.209 49.7813 196.266 47.4545 194.851 44.4375C193.453 41.4034 192.754 37.7642 192.754 33.5199C192.754 29.2756 193.462 25.6449 194.876 22.6278C196.308 19.6108 198.268 17.3011 200.757 15.6989C203.246 14.0966 206.067 13.2955 209.22 13.2955C211.658 13.2955 213.618 13.7045 215.101 14.5227C216.601 15.3239 217.76 16.2614 218.578 17.3352C219.413 18.4091 220.061 19.3551 220.521 20.1733H220.982V0.715909H228.626V53.0795H221.161V46.9688H220.521C220.061 47.804 219.396 48.7585 218.527 49.8324C217.675 50.9063 216.499 51.8438 214.999 52.6449C213.499 53.446 211.555 53.8466 209.169 53.8466ZM210.857 47.3267C213.055 47.3267 214.913 46.7472 216.43 45.5881C217.964 44.4119 219.124 42.7841 219.908 40.7045C220.709 38.625 221.109 36.2045 221.109 33.4432C221.109 30.7159 220.717 28.3295 219.933 26.2841C219.149 24.2386 217.999 22.6449 216.482 21.5028C214.964 20.3608 213.089 19.7898 210.857 19.7898C208.555 19.7898 206.638 20.3864 205.104 21.5795C203.57 22.7727 202.411 24.4006 201.626 26.4631C200.859 28.5256 200.476 30.8523 200.476 33.4432C200.476 36.0682 200.868 38.429 201.652 40.5256C202.436 42.6222 203.595 44.2841 205.129 45.5114C206.68 46.7216 208.589 47.3267 210.857 47.3267Z" fill="currentColor"/>
<path d="M256.464 53.8722C252.594 53.8722 249.262 53.0455 246.467 51.392C243.688 49.7216 241.54 47.3778 240.023 44.3608C238.523 41.3267 237.773 37.7727 237.773 33.6989C237.773 29.6761 238.523 26.1307 240.023 23.0625C241.54 19.9943 243.654 17.5994 246.364 15.8778C249.092 14.1563 252.279 13.2955 255.927 13.2955C258.143 13.2955 260.29 13.6619 262.37 14.3949C264.45 15.1278 266.316 16.2784 267.969 17.8466C269.623 19.4148 270.927 21.4517 271.881 23.9574C272.836 26.446 273.313 29.4716 273.313 33.0341V35.7443H242.094V30.017H265.822C265.822 28.0057 265.413 26.2244 264.594 24.6733C263.776 23.1051 262.626 21.8693 261.143 20.9659C259.677 20.0625 257.955 19.6108 255.978 19.6108C253.83 19.6108 251.955 20.1392 250.353 21.196C248.768 22.2358 247.54 23.5994 246.671 25.2869C245.819 26.9574 245.393 28.7727 245.393 30.733V35.2074C245.393 37.8324 245.853 40.0653 246.773 41.9063C247.711 43.7472 249.015 45.1534 250.685 46.125C252.356 47.0795 254.308 47.5568 256.54 47.5568C257.989 47.5568 259.31 47.3523 260.504 46.9432C261.697 46.517 262.728 45.8864 263.597 45.0511C264.467 44.2159 265.131 43.1847 265.592 41.9574L272.827 43.2614C272.248 45.392 271.208 47.2585 269.708 48.8608C268.225 50.446 266.359 51.6818 264.109 52.5682C261.876 53.4375 259.327 53.8722 256.464 53.8722Z" fill="currentColor"/>
<path d="M314.267 13.8068L300.026 53.0795H291.844L277.577 13.8068H285.784L295.73 44.0284H296.139L306.06 13.8068H314.267Z" fill="currentColor"/>
<path d="M337.042 53.8722C333.173 53.8722 329.84 53.0455 327.045 51.392C324.266 49.7216 322.119 47.3778 320.602 44.3608C319.102 41.3267 318.352 37.7727 318.352 33.6989C318.352 29.6761 319.102 26.1307 320.602 23.0625C322.119 19.9943 324.232 17.5994 326.942 15.8778C329.67 14.1563 332.857 13.2955 336.505 13.2955C338.721 13.2955 340.869 13.6619 342.948 14.3949C345.028 15.1278 346.894 16.2784 348.548 17.8466C350.201 19.4148 351.505 21.4517 352.46 23.9574C353.414 26.446 353.891 29.4716 353.891 33.0341V35.7443H322.673V30.017H346.4C346.4 28.0057 345.991 26.2244 345.173 24.6733C344.354 23.1051 343.204 21.8693 341.721 20.9659C340.255 20.0625 338.533 19.6108 336.556 19.6108C334.408 19.6108 332.533 20.1392 330.931 21.196C329.346 22.2358 328.119 23.5994 327.249 25.2869C326.397 26.9574 325.971 28.7727 325.971 30.733V35.2074C325.971 37.8324 326.431 40.0653 327.352 41.9063C328.289 43.7472 329.593 45.1534 331.263 46.125C332.934 47.0795 334.886 47.5568 337.119 47.5568C338.567 47.5568 339.888 47.3523 341.082 46.9432C342.275 46.517 343.306 45.8864 344.175 45.0511C345.045 44.2159 345.71 43.1847 346.17 41.9574L353.406 43.2614C352.826 45.392 351.786 47.2585 350.286 48.8608C348.803 50.446 346.937 51.6818 344.687 52.5682C342.454 53.4375 339.906 53.8722 337.042 53.8722Z" fill="currentColor"/>
<path d="M370.018 0.715909V53.0795H362.374V0.715909H370.018Z" fill="currentColor"/>
<path d="M396.846 53.8722C393.164 53.8722 389.951 53.0284 387.207 51.3409C384.462 49.6534 382.332 47.2926 380.815 44.2585C379.298 41.2244 378.539 37.679 378.539 33.6222C378.539 29.5483 379.298 25.9858 380.815 22.9347C382.332 19.8835 384.462 17.5142 387.207 15.8267C389.951 14.1392 393.164 13.2955 396.846 13.2955C400.528 13.2955 403.741 14.1392 406.485 15.8267C409.229 17.5142 411.36 19.8835 412.877 22.9347C414.394 25.9858 415.153 29.5483 415.153 33.6222C415.153 37.679 414.394 41.2244 412.877 44.2585C411.36 47.2926 409.229 49.6534 406.485 51.3409C403.741 53.0284 400.528 53.8722 396.846 53.8722ZM396.871 47.4545C399.258 47.4545 401.235 46.8239 402.803 45.5625C404.371 44.3011 405.531 42.6222 406.281 40.5256C407.048 38.429 407.431 36.1193 407.431 33.5966C407.431 31.0909 407.048 28.7898 406.281 26.6932C405.531 24.5795 404.371 22.8835 402.803 21.6051C401.235 20.3267 399.258 19.6875 396.871 19.6875C394.468 19.6875 392.474 20.3267 390.888 21.6051C389.32 22.8835 388.153 24.5795 387.386 26.6932C386.636 28.7898 386.261 31.0909 386.261 33.5966C386.261 36.1193 386.636 38.429 387.386 40.5256C388.153 42.6222 389.32 44.3011 390.888 45.5625C392.474 46.8239 394.468 47.4545 396.871 47.4545Z" fill="currentColor"/>
</svg>
